<svg xmlns="http://www.w3.org/2000/svg" width="640" height="402" viewBox="0 0 640 402" role="img" aria-labelledby="title desc">
  <title id="title">Everyday Debit sample card</title>
  <desc id="desc">Anonymous green debit card placeholder.</desc>
  <defs>
    <linearGradient id="bg" x1="0" x2="1" y1="0" y2="1">
      <stop offset="0" stop-color="#0f5f39"/>
      <stop offset="1" stop-color="#103a2c"/>
    </linearGradient>
  </defs>
  <rect width="640" height="402" rx="30" fill="url(#bg)"/>
  <path d="M0 252c128-84 211 58 334-31 106-77 168-32 306-99v280H0Z" fill="#fff" opacity=".08"/>
  <path d="M70 86h210" stroke="#d7efe2" stroke-width="10" stroke-linecap="round" opacity=".85"/>
  <rect x="70" y="148" width="76" height="58" rx="10" fill="#e8cf87"/>
  <path d="M70 177h76M108 148v58" stroke="#a8863f" stroke-width="4" opacity=".55"/>
  <text x="70" y="302" fill="#fff" font-family="Arial, Helvetica, sans-serif" font-size="28" font-weight="700">EVERYDAY DEBIT</text>
  <text x="70" y="340" fill="#d7efe2" font-family="Arial, Helvetica, sans-serif" font-size="24">River Bank</text>
  <text x="500" y="334" fill="#fff" font-family="Arial, Helvetica, sans-serif" font-size="36" font-weight="700">UP</text>
  <path d="M546 164c18 17 18 45 0 62M566 145c30 30 30 80 0 111" fill="none" stroke="#fff" stroke-width="9" stroke-linecap="round"/>
</svg>
